
<svg  viewBox="0 0 2560 1868" fill="none" xmlns="http://www.w3.org/2000/svg">
<g filter="url(#filter0_f_835_456)">
<rect opacity="0.67" width="231.026" height="1263.78" transform="matrix(-0.851292 0.524692 0.575244 0.817982 1113.38 -1099.61)" fill="#4314CB"/>
<rect width="231.026" height="1263.78" transform="matrix(-0.851292 0.524692 0.575244 0.817982 916.708 -978.396)" fill="#8C35EC"/>
<rect width="231.026" height="1263.78" transform="matrix(-0.851292 0.524692 0.575244 0.817982 720.036 -857.178)" fill="#BB44F0"/>
<rect width="231.026" height="1263.78" transform="matrix(-0.851292 0.524692 0.575244 0.817982 523.366 -735.961)" fill="#E554F3"/>
<rect width="231.026" height="1263.78" transform="matrix(-0.851292 0.524692 0.575244 0.817982 326.696 -614.744)" fill="#F664E4"/>
<rect width="231.026" height="1263.78" transform="matrix(-0.851292 0.524692 0.575244 0.817982 130.026 -493.526)" fill="#F974CC"/>
<rect width="231.026" height="1263.78" transform="matrix(-0.851292 0.524692 0.575244 0.817982 -66.6465 -372.309)" fill="#FB85B9"/>
<rect width="231.026" height="1263.78" transform="matrix(-0.851292 0.524692 0.575244 0.817982 -263.317 -251.091)" fill="#FD97AE"/>
<rect width="231.026" height="1263.78" transform="matrix(-0.851292 0.524692 0.575244 0.817982 -459.987 -129.874)" fill="#FEA9AA"/>
<rect width="231.026" height="1263.78" transform="matrix(-0.851292 0.524692 0.575244 0.817982 -656.658 -8.65625)" fill="#FFC9BB"/>
</g>
<defs>
<filter id="filter0_f_835_456" x="-1650" y="-2063.27" width="4680.37" height="3930.79" filterUnits="userSpaceOnUse" color-interpolation-filters="sRGB">
<feFlood flood-opacity="0" result="BackgroundImageFix"/>
<feBlend mode="normal" in="SourceGraphic" in2="BackgroundImageFix" result="shape"/>
<feGaussianBlur stdDeviation="300" result="effect1_foregroundBlur_835_456"/>
</filter>
</defs>
</svg>
